<?xml version="1.0" ?><!DOCTYPE svg  PUBLIC '-//W3C//DTD SVG 1.1//EN'  'http://www.w3.org/Graphics/SVG/1.1/DTD/svg11.dtd'><svg enable-background="new 0 0 24 24" height="24px" id="Layer_1" version="1.1" viewBox="0 0 24 24" width="24px" xml:space="preserve" xmlns="http://www.w3.org/2000/svg" xmlns:xlink="http://www.w3.org/1999/xlink"><g><path d="M5.8,7.9H1.5c-0.3,0-0.5,0.2-0.5,0.5V22c0,0.3,0.2,0.5,0.5,0.5h4.3c0.3,0,0.5-0.2,0.5-0.5V8.4C6.3,8.1,6.1,7.9,5.8,7.9z"/><path d="M17.6,7.8c-1.7,0-3,0.6-3.8,1.3V8.4c0-0.3-0.2-0.5-0.5-0.5H8.5C8.3,7.9,8.2,8,8.1,8.1C8,8.2,8,8.3,8,8.4C8,9.5,8,21.9,8,22   c0,0.1,0.1,0.3,0.1,0.3c0.1,0.1,0.2,0.1,0.3,0.1h4.8c0.3,0,0.5-0.2,0.5-0.5l0-6.3c0-0.3,0-0.6,0.1-0.8c0.3-0.6,0.8-1.4,1.9-1.4   c1.6,0,2,1.4,2,2.6V22c0,0.3,0.2,0.5,0.5,0.5H23c0.3,0,0.5-0.2,0.5-0.5v-7.6C23.5,10.3,21.2,7.8,17.6,7.8z"/><path d="M3.6,1.5c-1.8,0-3.1,1.2-3.1,2.8c0,1.6,1.3,2.8,3,2.8h0c1.8,0,3.1-1.2,3.1-2.9C6.6,2.7,5.4,1.5,3.6,1.5z"/></g></svg>