<?xml version="1.0" ?><!DOCTYPE svg  PUBLIC '-//W3C//DTD SVG 1.1//EN'  'http://www.w3.org/Graphics/SVG/1.1/DTD/svg11.dtd'><svg enable-background="new 0 0 512 512" height="512px" id="Layer_1" version="1.1" viewBox="0 0 512 512" width="512px" xml:space="preserve" xmlns="http://www.w3.org/2000/svg" xmlns:xlink="http://www.w3.org/1999/xlink"><g><path clip-rule="evenodd" d="M25.701,0h460.897C500.509,0,512,11.492,512,25.707v460.892   c0,13.91-11.491,25.401-25.401,25.401H25.701C11.492,512,0,500.509,0,486.599V25.707C0,11.492,11.492,0,25.701,0L25.701,0z    M279.438,119.758c-9.983,7.864-18.147,17.842-23.294,29.334l-3.018,7.26c-1.519,4.232-2.728,9.073-3.328,13.91   c-0.299,2.119-0.609,4.237-0.609,6.351v4.237l0.31,6.655l1.209,8.769h-0.31l-3.328,0.299h-2.108   c-25.711-0.299-50.204-6.045-72.587-16.028l-13-6.35c-2.418-1.209-4.836-2.718-6.955-3.933   c-14.52-8.769-27.52-19.351-39.312-31.452c-7.265-7.859-13.61-16.028-19.656-24.797c-6.355,12.096-9.983,25.707-9.983,40.221   c0,5.446,0.6,10.887,1.509,16.028c0.3,2.119,0.909,4.237,1.509,6.351c4.237,15.729,12.711,29.639,24.203,40.226l5.746,4.836   l-7.265-1.509c-9.373-2.423-18.746-5.446-27.52-9.073c1.209,18.751,8.474,35.989,19.966,49.599   c10.582,13.001,25.091,22.684,41.729,27.521l-19.356,1.209l-16.028-0.909c12.102,29.339,39.622,50.503,72.578,53.231   c-30.238,22.074-67.741,34.774-107.962,35.074c29.638,17.848,63.814,29.04,100.407,31.147h24.192   C310.896,401.62,401.01,307.568,401.01,192.341l-0.31-11.192c4.237-3.322,8.784-6.955,12.711-10.887   c9.673-9.373,18.437-19.656,26.001-30.542c-11.802,7.559-26.001,12.096-41.42,12.096h-0.909h-0.62l0.62-0.3   c14.199-9.074,25.401-22.989,30.838-39.317c-11.182,5.441-23.294,10.283-35.674,13.61l-1.819,0.3l-9.073,2.119   c-13.91-14.52-32.966-23.588-54.131-23.893h-0.62h-0.889c-6.056,0-11.802,0.604-17.548,1.814   c-8.474,2.118-16.328,5.446-23.293,9.983L279.438,119.758z" fill="#010101" fill-rule="evenodd"/></g></svg>